<svg id="Layer_1" data-name="Layer 1" xmlns="http://www.w3.org/2000/svg" viewBox="0 0 74 44.7"><defs><style>.cls-1{fill:none;stroke:#231f20;stroke-linecap:round;stroke-linejoin:round;stroke-width:2px;}</style></defs><title>home</title><path class="cls-1" d="M0,57.35c9.62,0,22.72-42.7,19.25-42.7S6.72,56.3,6.72,56.3s3.89-18.15,10-18.15-1.11,15.94,1.39,15.94,6.32-14,10-14,0,14.54-5,14.54c-2.07,0-2.37-1.7-2.26-3.69" transform="translate(1 -13.65)"/><path class="cls-1" d="M31,56.3S33,41.88,37.68,41.88s0,13.14,0,13.14,3.13-15.94,11-15.94S43.25,55,48.7,55c5.91,0,17.85-19.43,13.1-19.43S50.9,54.44,56.12,54.44,72,45.37,72,45.37" transform="translate(1 -13.65)"/><path class="cls-1" d="M29.62,42.68S35.7,40.47,33,47.86" transform="translate(1 -13.65)"/></svg>